<?xml version="1.0" encoding="utf-8"?>
<!-- Generator: Adobe Illustrator 23.0.3, SVG Export Plug-In . SVG Version: 6.00 Build 0)  -->
<svg version="1.1" id="图层_1" xmlns="http://www.w3.org/2000/svg" xmlns:xlink="http://www.w3.org/1999/xlink" x="0px" y="0px"
	 viewBox="0 0 926.6 249" style="enable-background:new 0 0 926.6 249;" xml:space="preserve">
<style type="text/css">
	.st0{display:none;}
	.st1{display:inline;}
	.st2{fill-rule:evenodd;clip-rule:evenodd;fill:#4F6CD0;}
	.st3{fill:#474747;}
	.st4{fill:#B81C23;}
</style>
<g class="st0">
	<g class="st1">
		<path class="st2" d="M79.1,199.8C66.7,181,71.4,163,71.4,163s7.5-31.2,48.2-31.3c39.7-0.1,50.3,33.3,50.3,33.3s3.8,13.2,0,22.6
			c-4.2,10.3-16.1,16.1-16.1,16.1s6.1,4.5,18,1.9c8.3-1.8,16.2-8.7,20.6-13.6c9.6-10.7,17.9-25.7,13.5-48.4
			c-7.3-37.9-49.9-84.5-116.5-82C22.9,64.2,1.3,114,2.5,144.9c1.9,49.5,44.7,81.8,66.2,91.4c22.5,9.9,55,20,97.9,5.4
			c24.5-8.3,44.4-27.8,44.4-27.8s-23.5,17.6-48.3,21.3C129,240.3,95.8,224.8,79.1,199.8z M248.4,122.3c-1-32.1-16.5-75.9-56.5-101.6
			C144.8-9.5,100.1-2,69.5,13.9c-30.4,15.8-47,40-47,40s22.3-19.1,58.6-24.5c25.7-3.9,60.8,0.2,89.5,18.1
			c31.2,19.5,48.3,40.7,57.9,60c23.4,46.9-0.6,85.8-0.6,85.8S249.7,165,248.4,122.3z"/>
	</g>
</g>
<g>
	<path class="st3" d="M326.5,163.9h14.3l14.3-51.1l14.6,51.1h14.5l17.9-79h-14.9l-11.4,50.4l-14.4-50.4H349l-14.2,50.4l-11.5-50.4
		h-14.9L326.5,163.9z"/>
	<path class="st3" d="M412.5,163.9h15v-79h-15V163.9z"/>
	<path class="st3" d="M474.2,85.6c-3.6-1.8-7.4-2.7-11.3-2.7c-6.2,0-11.3,2-15.5,5.9s-6.3,8.6-6.3,14.1c0,3.8,1.3,7.6,3.8,11.4
		s8.1,9.2,16.7,16.2c4.5,3.7,7.5,6.4,8.8,8.2s2,3.6,2,5.4c0,2-0.9,3.7-2.6,5.2c-1.8,1.5-3.9,2.3-6.5,2.3c-5,0-9.4-3.5-13.2-10.5
		l-12.7,7.6c3,5.9,6.6,10.2,10.8,13c4.2,2.8,9.1,4.1,14.8,4.1c7.2,0,13.1-2.1,17.6-6.3s6.7-9.6,6.7-16.1c0-3.3-0.6-6.4-1.9-9.2
		s-3.4-5.8-6.5-8.8c-1.2-1.3-4.7-4.3-10.5-9.1c-6.2-5.2-9.8-8.6-11.1-10.2c-0.9-1.2-1.4-2.4-1.4-3.8c0-1.3,0.6-2.5,1.9-3.6
		s2.9-1.6,4.9-1.6c4.1,0,8.1,2.7,12,8.2l11.2-9.8C481.6,90.8,477.8,87.5,474.2,85.6z"/>
	<path class="st3" d="M501.9,163.9h43.3v-14.8h-28.3v-20.8h28.3v-14.4h-28.3V99.6h28.3V84.9h-43.3L501.9,163.9L501.9,163.9z"/>
	<path class="st3" d="M571.4,163.9h14.3l14.3-51.1l14.6,51.1h14.5l17.9-79h-14.9l-11.4,50.4l-14.4-50.4h-12.6l-14.2,50.4L568,84.9
		h-14.9L571.4,163.9z"/>
	<path class="st3" d="M675.2,88.5c-6.4,3.7-11.5,8.7-15.1,15.1c-3.7,6.3-5.5,13.3-5.5,20.8c0,11.3,3.9,21,11.8,29.2
		c7.9,8.2,17.8,12.3,29.7,12.3c11.4,0,21-4,29-12s12-17.7,12-29.3s-4-21.5-12.1-29.6s-17.7-12.1-28.9-12.1
		C688.5,82.9,681.6,84.8,675.2,88.5z M714.3,105.4c5.1,5.2,7.6,11.6,7.6,19.1c0,7.6-2.5,13.9-7.6,19.1c-5,5.2-11.1,7.7-18.3,7.7
		c-6.3,0-11.9-2-16.8-6c-6.3-5.1-9.4-12-9.4-20.7c0-7.8,2.5-14.3,7.5-19.4s11.2-7.6,18.5-7.6C703,97.6,709.2,100.2,714.3,105.4z"/>
	<path class="st3" d="M752.3,163.9h15.1v-33.5h1.4l17.8,33.5h16.5l-18.8-35.1c5-1.8,8.8-4.4,11.3-7.9s3.7-7.8,3.7-13
		c0-4.9-1.1-9.2-3.4-12.8c-2.3-3.6-5.3-6.2-9-7.8c-3.7-1.6-10-2.3-18.7-2.3h-16v78.9H752.3z M767.4,99.6h4.1c4,0,6.8,0.3,8.3,0.8
		c1.5,0.6,2.7,1.5,3.6,2.7c0.9,1.3,1.3,2.8,1.3,4.5c0,2.9-0.9,5-2.7,6.3s-5.1,1.9-9.9,1.9h-4.7L767.4,99.6L767.4,99.6z"/>
	<path class="st3" d="M815.3,163.9h15.3v-35.1l24.5,35.1H873l-30.4-43.7l27.7-35.3h-18.1l-21.5,27.2V84.9h-15.3v79H815.3z"/>
	<path class="st3" d="M913.6,85.6c-3.6-1.8-7.4-2.7-11.3-2.7c-6.2,0-11.3,2-15.5,5.9s-6.3,8.6-6.3,14.1c0,3.8,1.3,7.6,3.8,11.4
		s8.1,9.2,16.7,16.2c4.5,3.7,7.5,6.4,8.8,8.2s2,3.6,2,5.4c0,2-0.9,3.7-2.6,5.2c-1.8,1.5-3.9,2.3-6.5,2.3c-5,0-9.4-3.5-13.2-10.5
		l-12.7,7.6c3,5.9,6.6,10.2,10.8,13s9.1,4.1,14.8,4.1c7.2,0,13.1-2.1,17.6-6.3s6.7-9.6,6.7-16.1c0-3.3-0.6-6.4-1.9-9.2
		c-1.3-2.8-3.4-5.8-6.5-8.8c-1.2-1.3-4.7-4.3-10.5-9.1c-6.2-5.2-9.8-8.6-11.1-10.2c-0.9-1.2-1.4-2.4-1.4-3.8c0-1.3,0.6-2.5,1.9-3.6
		c1.3-1.1,2.9-1.6,4.9-1.6c4.1,0,8.1,2.7,12,8.2l11.2-9.8C921,90.8,917.2,87.5,913.6,85.6z"/>
</g>
<path class="st4" d="M248.5,154.8l0-153.8h-42l0,154.3l-22,24.8c-4.9,5.6-14.2,2.1-14.2-5.4l0-87.6H115c8.2,0,14.9,6.7,14.9,14.9
	l0,0l0,53.2h0l-23.4,26.4c-4.9,5.6-14.2,2.1-14.2-5.4V2.5l-65.9,0c13.2,0,23.9,10.7,23.9,23.9l0,129.9l42,47.4l37.5-42.4l0,0l0,86.6
	l76.6-86.6l0,40.8L248.5,154.8z"/>
</svg>
